#N canvas 131 197 595 378 10;
#X obj 101 101 cnv 15 100 58 empty empty empty 20 12 0 14 -233017 -66577
0;
#X obj 131 231 writesf~ 2;
#X obj 46 55 inlet~;
#X obj 275 65 inlet~;
#X obj 295 133 savepanel;
#X msg 295 171 open \$1;
#X msg 120 180 start;
#X msg 159 180 stop;
#X obj 102 139 bng 15 250 50 0 empty empty empty 17 7 0 10 -262144
-1 -1;
#X obj 140 140 bng 15 250 50 0 empty empty empty 17 7 0 10 -262144
-1 -1;
#X obj 176 140 bng 15 250 50 0 empty empty empty 17 7 0 10 -262144
-1 -1;
#X text 100 111 Save;
#X text 138 112 Rec;
#X text 168 112 Stop;
#X msg 295 114 symbol /Users/lessnullvoid;
#X obj 295 153 makefilename %silencio.wav;
#X connect 2 0 1 0;
#X connect 3 0 1 1;
#X connect 4 0 15 0;
#X connect 5 0 1 0;
#X connect 6 0 1 0;
#X connect 7 0 1 0;
#X connect 8 0 14 0;
#X connect 9 0 6 0;
#X connect 10 0 7 0;
#X connect 14 0 4 0;
#X connect 15 0 5 0;
#X coords 0 -1 1 1 100 60 1 100 100;
