#N canvas 228 246 804 276 10;
#X obj 228 218 sendOSC;
#X obj 32 75 dumpOSC 8000;
#X msg 265 184 send /1/fader1 1;
#X obj 32 108 print osc;
#X text 414 194 Use osc address of control. OSC messages are constructed
like this: /pagenumber/controlname;
#X text 395 131 Sending values to the iPhone on port 9000 Replace 10.10.10.10
with the ip-address of the iPhone;
#X text 29 19 Receiving values on port 8000 from the iPhone. Send values
from the iPhone to see the osc adress of the control for sending values
;
#X msg 228 152 connect 192.168.0.16 9000;
#X connect 1 0 3 0;
#X connect 2 0 0 0;
#X connect 7 0 0 0;
#X coords 0 0 1 1 85 60 0;
